<?xml version="1.0" encoding="UTF-8" standalone="no"?>
<svg
   width="512"
   height="512"
   viewBox="0 0 512 512"
   version="1.1"
   id="svg10"
   sodipodi:docname="yellow-floppy3-outline.svg"
   inkscape:version="1.4.3 (0d15f75042, 2025-12-25)"
   xml:space="preserve"
   xmlns:inkscape="http://www.inkscape.org/namespaces/inkscape"
   xmlns:sodipodi="http://sodipodi.sourceforge.net/DTD/sodipodi-0.dtd"
   xmlns="http://www.w3.org/2000/svg"
   xmlns:svg="http://www.w3.org/2000/svg"><defs
     id="defs10" /><sodipodi:namedview
     id="namedview10"
     pagecolor="#505050"
     bordercolor="#eeeeee"
     borderopacity="1"
     inkscape:showpageshadow="0"
     inkscape:pageopacity="0"
     inkscape:pagecheckerboard="0"
     inkscape:deskcolor="#505050"
     inkscape:zoom="1.4804688"
     inkscape:cx="255.66226"
     inkscape:cy="256.67545"
     inkscape:window-width="1920"
     inkscape:window-height="1011"
     inkscape:window-x="0"
     inkscape:window-y="0"
     inkscape:window-maximized="1"
     inkscape:current-layer="svg10" /><path
     d="M60,40 H452 A20,20 0 0 1 472,60 V452 A20,20 0 0 1 452,472 H120 L40,392 V60 A20,20 0 0 1 60,40 Z"
     fill="#FFD700"
     stroke="black"
     stroke-width="14"
     stroke-linejoin="round"
     id="path1"
     style="fill:none;stroke-dasharray:14,14;stroke-dashoffset:0" /><rect
     x="63"
     y="63"
     width="35"
     height="35"
     rx="5"
     fill="#4b3f00"
     stroke="#000000"
     stroke-width="8"
     id="rect3"
     style="stroke-dasharray:8, 8;stroke-dashoffset:0;fill:none" /><rect
     x="414"
     y="63"
     width="35"
     height="35"
     rx="5"
     fill="#4b3f00"
     stroke="#000000"
     stroke-width="8"
     id="rect4"
     style="stroke-dasharray:8, 8;stroke-dashoffset:0;fill:none" /><rect
     x="106"
     y="100"
     width="300"
     height="200"
     rx="25"
     fill="#FFFBE6"
     stroke="black"
     stroke-width="12"
     id="rect5"
     style="stroke-dasharray:12, 24;stroke-dashoffset:0;fill:none" /><rect
     x="131"
     y="340"
     width="250"
     height="132"
     rx="20"
     fill="#E5E5E5"
     stroke="black"
     stroke-width="12"
     id="rect9"
     style="fill:none;stroke-dasharray:12,24;stroke-dashoffset:0" /><rect
     x="160"
     y="375"
     width="60"
     height="75"
     rx="10"
     fill="#FFD700"
     stroke="black"
     stroke-width="8"
     id="rect10"
     style="fill:none;stroke-dasharray:8,8;stroke-dashoffset:0" /><path
     d="M 266.05127,152.32868 H 256 v 10.05127 h 10.05127 z"
     fill="#ffffff"
     id="path1-5"
     style="stroke-width:5.02563;fill:#000000;fill-opacity:1" /><path
     d="m 225.84621,167.40558 h 10.05127 v 10.05127 h -10.05127 z"
     fill="#ffffff"
     id="path2"
     style="stroke-width:5.02563;fill:#000000;fill-opacity:1" /><path
     d="m 205.75147,202.2905 c 0.85883,14.58087 9.54227,35.47393 40.19727,35.47393 34.1743,0 49.41855,-25.12816 52.76914,-37.69224 4.18786,0 13.5692,-2.51282 17.58971,-12.56408 -2.51282,-2.51282 -12.56408,-2.51282 -17.58971,0 0,-4.02051 -2.51282,-12.56408 -7.53845,-15.0769 -3.35059,3.35059 -8.54358,12.06152 -2.51282,20.10253 -2.51281,5.02563 -9.21349,5.02563 -12.56408,5.02563 h -65.62018 c -2.66097,0 -4.88738,2.07458 -4.73088,4.73113 z"
     fill="#ffffff"
     id="path3"
     style="stroke-width:5.02563;fill:#000000;fill-opacity:1" /><path
     d="m 220.82058,182.48248 h -10.05127 v 10.05126 h 10.05127 z"
     fill="#ffffff"
     id="path4"
     style="stroke-width:5.02563;fill:#000000;fill-opacity:1" /><path
     d="m 225.84621,182.48248 h 10.05127 v 10.05126 h -10.05127 z"
     fill="#ffffff"
     id="path5"
     style="stroke-width:5.02563;fill:#000000;fill-opacity:1" /><path
     d="m 250.97437,182.48248 h -10.05126 v 10.05126 h 10.05126 z"
     fill="#ffffff"
     id="path6"
     style="stroke-width:5.02563;fill:#000000;fill-opacity:1" /><path
     d="m 256,182.48248 h 10.05127 v 10.05126 H 256 Z"
     fill="#ffffff"
     id="path7"
     style="stroke-width:5.02563;fill:#000000;fill-opacity:1" /><path
     d="M 281.12816,182.48248 H 271.0769 v 10.05126 h 10.05126 z"
     fill="#ffffff"
     id="path8"
     style="stroke-width:5.02563;fill:#000000;fill-opacity:1" /><path
     d="m 250.97437,167.40558 h -10.05126 v 10.05127 h 10.05126 z"
     fill="#ffffff"
     id="path9"
     style="stroke-width:5.02563;fill:#000000;fill-opacity:1" /><path
     d="m 256,167.40558 h 10.05127 v 10.05127 H 256 Z"
     fill="#ffffff"
     id="path10"
     style="stroke-width:5.02563;fill:#000000;fill-opacity:1" /></svg>
