<svg viewBox="0 0 20 20" fill="none" stroke="#000" xmlns="http://www.w3.org/2000/svg">
<path d="M14.195 9.77792C14.7042 10.5612 15 11.4958 15 12.5C15 15.2612 12.7612 17.5 10 17.5C7.23875 17.5 5 15.2612 5 12.5C5 9.73875 7.23875 7.5 10 7.5C11.0037 7.5 11.9388 7.79583 12.7221 8.305"/>
<path d="M16.9729 7.23291C17.3129 8.08916 17.5 9.02291 17.5 10.0004C17.5 14.1425 14.1421 17.5004 10 17.5004C5.85792 17.5004 2.5 14.1425 2.5 10.0004C2.5 9.02291 2.68708 8.08916 3.02708 7.23291"/>
<path d="M11.248 2.60352C13.0064 2.8981 14.5576 3.80435 15.6747 5.09602"/>
<path d="M4.32617 5.09609C5.44326 3.80484 6.99326 2.899 8.75076 2.604"/>
<path d="M4.81445 7.31396L9.31445 11.814"/>
<path d="M15.1855 7.31381L15.6739 5.0959L17.4605 5.01465L16.9722 7.23257L15.1855 7.31381Z M4.81406 7.31381L4.32573 5.0959L2.53906 5.01465L3.0274 7.23257L4.81406 7.31381Z M15.1858 7.31396L14.3379 8.16188"/>
<path d="M10 4.1665V11.4976"/>
<path d="M10 4.16674L8.75 2.60383L10 1.11133L11.25 2.60383L10 4.16674Z M12.5371 9.96204L12.7213 8.30454L14.3375 8.16162L14.1946 9.77787L12.5371 9.96204Z M9.99854 13.5024C10.5522 13.5024 11.001 13.0536 11.001 12.5C11.001 11.9464 10.5522 11.4976 9.99854 11.4976C9.4449 11.4976 8.99609 11.9464 8.99609 12.5C8.99609 13.0536 9.4449 13.5024 9.99854 13.5024Z" fill="#000"/>
</svg>