<?xml version="1.0" encoding="UTF-8" standalone="no"?>
<svg
   width="1200"
   height="630"
   viewBox="0 0 1200 630"
   version="1.1"
   id="svg28"
   sodipodi:docname="social-preview.svg"
   inkscape:version="1.4.3 (0d15f75042, 2025-12-25)"
   xmlns:inkscape="http://www.inkscape.org/namespaces/inkscape"
   xmlns:sodipodi="http://sodipodi.sourceforge.net/DTD/sodipodi-0.dtd"
   xmlns:xlink="http://www.w3.org/1999/xlink"
   xmlns="http://www.w3.org/2000/svg"
   xmlns:svg="http://www.w3.org/2000/svg">
  <sodipodi:namedview
     id="namedview28"
     pagecolor="#505050"
     bordercolor="#eeeeee"
     borderopacity="1"
     inkscape:showpageshadow="0"
     inkscape:pageopacity="0"
     inkscape:pagecheckerboard="0"
     inkscape:deskcolor="#505050"
     inkscape:zoom="1.2031746"
     inkscape:cx="599.66359"
     inkscape:cy="315"
     inkscape:window-width="1920"
     inkscape:window-height="1011"
     inkscape:window-x="0"
     inkscape:window-y="0"
     inkscape:window-maximized="1"
     inkscape:current-layer="svg28" />
  <defs
     id="defs6">
    <!-- Background gradient: warm yellow, lit from top-left -->
    <linearGradient
       id="bg-grad"
       x1="0"
       y1="0"
       x2="1"
       y2="1">
      <stop
         offset="0%"
         stop-color="#fff8e1"
         id="stop1" />
      <stop
         offset="50%"
         stop-color="#fff3c4"
         id="stop2" />
      <stop
         offset="100%"
         stop-color="#ffe588"
         id="stop3" />
    </linearGradient>
    <!-- Floppy logo gradient (from original SVG) -->
    <linearGradient
       id="floppy-gradient"
       x1="0"
       y1="0"
       x2="0"
       y2="1">
      <stop
         offset="0%"
         stop-color="#ffc830"
         id="stop4" />
      <stop
         offset="100%"
         stop-color="#e89f00"
         id="stop5" />
    </linearGradient>
    <!-- Mask for floppy holes -->
    <mask
       id="floppy-hole-mask">
      <rect
         x="0"
         y="0"
         width="512"
         height="512"
         fill="white"
         id="rect5" />
      <circle
         cx="106"
         cy="96"
         r="22"
         fill="black"
         id="circle5" />
      <circle
         cx="406"
         cy="96"
         r="22"
         fill="black"
         id="circle6" />
    </mask>
    <linearGradient
       inkscape:collect="always"
       xlink:href="#floppy-gradient"
       id="linearGradient28"
       x1="33"
       y1="33"
       x2="33"
       y2="479"
       gradientUnits="userSpaceOnUse" />
    <linearGradient
       inkscape:collect="always"
       xlink:href="#floppy-gradient"
       id="linearGradient29"
       x1="172.34917"
       y1="335.80667"
       x2="172.34917"
       y2="410.93323"
       gradientTransform="scale(0.90513928,1.1048024)"
       gradientUnits="userSpaceOnUse" />
  </defs>
  <!-- Background -->
  <rect
     width="1200"
     height="630"
     fill="url(#bg-grad)"
     id="rect6" />
  <!-- Decorative floating shapes (playful, cartoony) -->
  <!-- Large soft circles -->
  <circle
     cx="100"
     cy="80"
     r="60"
     fill="#ffc830"
     opacity="0.18"
     id="circle7" />
  <circle
     cx="1100"
     cy="550"
     r="90"
     fill="#e89f00"
     opacity="0.12"
     id="circle8" />
  <circle
     cx="950"
     cy="100"
     r="45"
     fill="#ffc830"
     opacity="0.15"
     id="circle9" />
  <circle
     cx="200"
     cy="520"
     r="70"
     fill="#ffd54f"
     opacity="0.14"
     id="circle10" />
  <!-- Small accent dots -->
  <circle
     cx="300"
     cy="60"
     r="12"
     fill="#ffc830"
     opacity="0.25"
     id="circle11" />
  <circle
     cx="1050"
     cy="200"
     r="16"
     fill="#e89f00"
     opacity="0.2"
     id="circle12" />
  <circle
     cx="80"
     cy="350"
     r="10"
     fill="#ffd54f"
     opacity="0.22"
     id="circle13" />
  <circle
     cx="1150"
     cy="380"
     r="14"
     fill="#ffc830"
     opacity="0.18"
     id="circle14" />
  <circle
     cx="500"
     cy="580"
     r="11"
     fill="#e89f00"
     opacity="0.2"
     id="circle15" />
  <circle
     cx="750"
     cy="50"
     r="9"
     fill="#ffd54f"
     opacity="0.22"
     id="circle16" />
  <!-- Rounded rectangle accents -->
  <rect
     x="50"
     y="200"
     width="40"
     height="40"
     rx="12"
     fill="#ffc830"
     opacity="0.12"
     transform="rotate(15, 70, 220)"
     id="rect16" />
  <rect
     x="1080"
     y="300"
     width="50"
     height="50"
     rx="14"
     fill="#e89f00"
     opacity="0.1"
     transform="rotate(-20, 1105, 325)"
     id="rect17" />
  <rect
     x="850"
     y="540"
     width="35"
     height="35"
     rx="10"
     fill="#ffd54f"
     opacity="0.15"
     transform="rotate(30, 867, 557)"
     id="rect18" />
  <!-- Tiny star/sparkle shapes -->
  <g
     opacity="0.2"
     transform="translate(400, 90)"
     id="g18">
    <path
       d="M0,-8 L2,-2 L8,0 L2,2 L0,8 L-2,2 L-8,0 L-2,-2 Z"
       fill="#e89f00"
       id="path18" />
  </g>
  <g
     opacity="0.18"
     transform="translate(1000, 450)"
     id="g19">
    <path
       d="M0,-10 L2.5,-2.5 L10,0 L2.5,2.5 L0,10 L-2.5,2.5 L-10,0 L-2.5,-2.5 Z"
       fill="#ffc830"
       id="path19" />
  </g>
  <g
     opacity="0.15"
     transform="translate(650, 30)"
     id="g20">
    <path
       d="M0,-7 L1.8,-1.8 L7,0 L1.8,1.8 L0,7 L-1.8,1.8 L-7,0 L-1.8,-1.8 Z"
       fill="#e89f00"
       id="path20" />
  </g>
  <!-- Floppy logo, scaled and centered -->
  <g
     transform="matrix(0.52,0,0,0.52,466.88,80)"
     id="g27">
    <!-- Floppy body -->
    <path
       d="m 122,40 h 268 a 82,82 0 0 1 82,82 v 268 a 82,82 0 0 1 -82,82 H 140 a 20,20 0 0 1 -14,-6 L 46,398 A 20,20 0 0 1 40,384 V 122 a 82,82 0 0 1 82,-82 z"
       fill="url(#floppy-gradient)"
       stroke="#000000"
       stroke-width="14"
       stroke-linejoin="round"
       mask="url(#floppy-hole-mask)"
       id="path21"
       style="fill:url(#linearGradient28)" />
    <!-- Specular highlights -->
    <rect
       x="50"
       y="130"
       width="20"
       height="120"
       rx="10"
       fill="#ffffff"
       fill-opacity="0.7"
       id="rect21" />
    <rect
       x="50"
       y="300"
       width="16"
       height="70"
       rx="8"
       fill="#ffffff"
       fill-opacity="0.55"
       id="rect22" />
    <!-- Hole borders -->
    <circle
       cx="106"
       cy="96"
       r="22"
       fill="none"
       stroke="#000000"
       stroke-width="12"
       id="circle22" />
    <circle
       cx="406"
       cy="96"
       r="22"
       fill="none"
       stroke="#000000"
       stroke-width="12"
       id="circle23" />
    <!-- Sticker label -->
    <rect
       x="130.5"
       y="112"
       width="251"
       height="188"
       rx="46"
       fill="#fffbe6"
       stroke="#000000"
       stroke-width="12"
       id="rect23" />
    <!-- Metal slider -->
    <rect
       x="131"
       y="340"
       width="250"
       height="132"
       rx="20"
       fill="#e5e5e5"
       stroke="#000000"
       stroke-width="12"
       id="rect24" />
    <rect
       x="160"
       y="375"
       width="60"
       height="75"
       rx="10"
       fill="url(#floppy-gradient)"
       stroke="#000000"
       stroke-width="8"
       id="rect25"
       style="fill:url(#linearGradient29)" />
    <!-- Kawaii face -->
    <g
       transform="matrix(0.816,0,0,0.816,46.57,47.46)"
       id="g26">
      <circle
         cx="169.42"
         cy="171.17999"
         r="33.450001"
         fill="#000000"
         id="circle25" />
      <circle
         cx="343.38"
         cy="171.17999"
         r="33.450001"
         fill="#000000"
         id="circle26" />
      <path
         d="m 222.95,221.36 q 33.45,33.45 66.91,0"
         fill="none"
         stroke-width="20.07"
         stroke-linecap="round"
         stroke="#000000"
         id="path26" />
    </g>
  </g>
  <!-- "Save Button" brand text -->
  <text
     x="600.67188"
     y="405"
     text-anchor="middle"
     font-family="Inter, '-apple-system', BlinkMacSystemFont, 'Segoe UI', Roboto, sans-serif"
     font-size="64px"
     font-weight="800"
     fill="#18181b"
     letter-spacing="-1"
     id="text27">Save Button</text>
  <!-- Tagline -->
  <text
     x="600.82031"
     y="470"
     text-anchor="middle"
     font-family="Inter, '-apple-system', BlinkMacSystemFont, 'Segoe UI', Roboto, sans-serif"
     font-size="30px"
     font-weight="500"
     fill="#52525b"
     id="text28">Your bookmarks. On all your devices. Forever.</text>
  <!-- Subtle bottom accent line -->
  <rect
     x="460"
     y="500"
     width="280"
     height="4"
     rx="2"
     fill="#ffc830"
     opacity="0.6"
     id="rect28" />
</svg>
