<?xml version="1.0" encoding="UTF-8" standalone="no"?>
<svg
   width="512"
   height="512"
   viewBox="0 0 512 512"
   version="1.1"
   id="svg10"
   sodipodi:docname="yellow-floppy4.svg"
   inkscape:version="1.4.3 (0d15f75042, 2025-12-25)"
   xmlns:inkscape="http://www.inkscape.org/namespaces/inkscape"
   xmlns:sodipodi="http://sodipodi.sourceforge.net/DTD/sodipodi-0.dtd"
   xmlns="http://www.w3.org/2000/svg"
   xmlns:svg="http://www.w3.org/2000/svg">
  <defs
     id="defs10" />
  <sodipodi:namedview
     id="namedview10"
     pagecolor="#505050"
     bordercolor="#eeeeee"
     borderopacity="1"
     inkscape:showpageshadow="0"
     inkscape:pageopacity="0"
     inkscape:pagecheckerboard="0"
     inkscape:deskcolor="#505050"
     inkscape:zoom="1.4804688"
     inkscape:cx="255.99999"
     inkscape:cy="256.67545"
     inkscape:window-width="1503"
     inkscape:window-height="933"
     inkscape:window-x="0"
     inkscape:window-y="0"
     inkscape:window-maximized="1"
     inkscape:current-layer="svg10" />
  <path
     d="M122,40 H390 A82,82 0 0 1 472,122 V390 A82,82 0 0 1 390,472 H120 L40,392 V122 A82,82 0 0 1 122,40 Z"
     fill="#FFD700"
     stroke="black"
     stroke-width="14"
     stroke-linejoin="round"
     id="path1"
     style="fill:#febb13;fill-opacity:1" />
  <rect
     x="51"
     y="116"
     width="12"
     height="80"
     rx="6"
     fill="#ffffff"
     fill-opacity="0.5"
     id="rect1" />
  <rect
     x="51"
     y="320"
     width="10"
     height="40"
     rx="5"
     fill="#ffffff"
     fill-opacity="0.4"
     id="rect2" />
  <rect
     x="75"
     y="79"
     width="35"
     height="35"
     rx="5"
     fill="#4b3f00"
     stroke="#000000"
     stroke-width="8"
     id="rect3" />
  <rect
     x="402"
     y="77"
     width="35"
     height="35"
     rx="5"
     fill="#4b3f00"
     stroke="#000000"
     stroke-width="8"
     id="rect4" />
  <rect
     x="130.50179"
     y="99.501785"
     width="250.99643"
     height="200.99643"
     rx="20.916368"
     fill="#fffbe6"
     stroke="#000000"
     stroke-width="12"
     id="rect5" />
  <rect
     x="131"
     y="340"
     width="250"
     height="132"
     rx="20"
     fill="#E5E5E5"
     stroke="black"
     stroke-width="12"
     id="rect9" />
  <rect
     x="160"
     y="375"
     width="60"
     height="75"
     rx="10"
     fill="#FFD700"
     stroke="black"
     stroke-width="8"
     id="rect10"
     style="fill:#febb13;fill-opacity:1" />
  <g
     id="g1"
     transform="matrix(0.81644503,0,0,0.81644503,46.572924,39.464915)">
    <circle
       cx="169.42451"
       cy="171.17914"
       r="33.453533"
       fill="#000000"
       id="circle8"
       style="stroke-width:3.34536" />
    <circle
       cx="343.38287"
       cy="171.17914"
       r="33.453533"
       fill="#000000"
       id="circle9"
       style="stroke-width:3.34536" />
    <path
       d="m 222.95017,221.35943 q 33.45353,33.45353 66.90706,0"
       fill="none"
       stroke="#000000"
       stroke-width="20.0721"
       stroke-linecap="round"
       id="path9" />
  </g>
</svg>
